<mxfile host="app.diagrams.net" modified="2020-08-10T17:09:37.428Z" agent="5.0 (Windows NT 10.0; Win64; x64) AppleWebKit/537.36 (KHTML, like Gecko) Chrome/84.0.4147.105 Safari/537.36" etag="KbXqd9vtIqHnXke6kmNy" version="13.6.2" type="github">
  <diagram id="CYBeRG9YL0SE0EuFMWZS" name="Page-1">
    <mxGraphModel dx="868" dy="450" grid="1" gridSize="10" guides="1" tooltips="1" connect="1" arrows="1" fold="1" page="1" pageScale="1" pageWidth="850" pageHeight="1100" math="0" shadow="0">
      <root>
        <mxCell id="0" />
        <mxCell id="1" parent="0" />
        <mxCell id="pOxm1DOxL_rTkaonQVly-1" value="" style="rounded=0;whiteSpace=wrap;html=1;" vertex="1" parent="1">
          <mxGeometry x="10" width="850" height="640" as="geometry" />
        </mxCell>
        <mxCell id="pOxm1DOxL_rTkaonQVly-2" value="&lt;font style=&quot;font-size: 36px&quot;&gt;&lt;b&gt;RECOVER YOUR PASSWORD&lt;/b&gt;&lt;/font&gt;" style="text;html=1;strokeColor=none;fillColor=none;align=center;verticalAlign=middle;whiteSpace=wrap;rounded=0;" vertex="1" parent="1">
          <mxGeometry x="70" y="130" width="520" height="20" as="geometry" />
        </mxCell>
        <mxCell id="pOxm1DOxL_rTkaonQVly-3" value="&lt;span style=&quot;font-size: 24px&quot;&gt;Enter Your E-mail Address&lt;/span&gt;" style="text;html=1;strokeColor=none;fillColor=none;align=center;verticalAlign=middle;whiteSpace=wrap;rounded=0;" vertex="1" parent="1">
          <mxGeometry x="70" y="230" width="300" height="20" as="geometry" />
        </mxCell>
        <mxCell id="pOxm1DOxL_rTkaonQVly-4" value="&lt;span style=&quot;font-size: 24px&quot;&gt;A message will be sent to your email with further instructions&lt;/span&gt;" style="text;html=1;strokeColor=none;fillColor=none;align=center;verticalAlign=middle;whiteSpace=wrap;rounded=0;" vertex="1" parent="1">
          <mxGeometry x="70" y="360" width="660" height="20" as="geometry" />
        </mxCell>
        <mxCell id="pOxm1DOxL_rTkaonQVly-5" value="" style="rounded=1;whiteSpace=wrap;html=1;" vertex="1" parent="1">
          <mxGeometry x="80" y="260" width="400" height="60" as="geometry" />
        </mxCell>
        <mxCell id="pOxm1DOxL_rTkaonQVly-6" value="&lt;span style=&quot;font-size: 24px&quot;&gt;Recover Password&lt;/span&gt;" style="labelPosition=center;verticalLabelPosition=middle;align=center;html=1;shape=mxgraph.basic.button;dx=3;" vertex="1" parent="1">
          <mxGeometry x="80" y="420" width="400" height="60" as="geometry" />
        </mxCell>
        <mxCell id="pOxm1DOxL_rTkaonQVly-7" value="&lt;span style=&quot;font-size: 24px&quot;&gt;Go back&lt;/span&gt;" style="labelPosition=center;verticalLabelPosition=middle;align=center;html=1;shape=mxgraph.basic.shaded_button;dx=5;fillColor=#dae8fc;strokeColor=#6c8ebf;" vertex="1" parent="1">
          <mxGeometry x="730" y="550" width="110" height="60" as="geometry" />
        </mxCell>
        <mxCell id="pOxm1DOxL_rTkaonQVly-8" value="" style="rounded=0;whiteSpace=wrap;html=1;" vertex="1" parent="1">
          <mxGeometry x="20" y="10" width="830" height="60" as="geometry" />
        </mxCell>
        <mxCell id="pOxm1DOxL_rTkaonQVly-9" value="&lt;font style=&quot;font-size: 36px&quot; face=&quot;Georgia&quot;&gt;A&lt;/font&gt;&lt;font style=&quot;font-size: 24px&quot; face=&quot;Georgia&quot;&gt;ce&lt;/font&gt;" style="text;html=1;strokeColor=none;fillColor=none;align=center;verticalAlign=middle;whiteSpace=wrap;rounded=0;" vertex="1" parent="1">
          <mxGeometry x="50" y="21" width="41" height="38" as="geometry" />
        </mxCell>
        <mxCell id="pOxm1DOxL_rTkaonQVly-10" value="" style="shape=image;html=1;verticalAlign=top;verticalLabelPosition=bottom;labelBackgroundColor=#ffffff;imageAspect=0;aspect=fixed;image=https://cdn4.iconfinder.com/data/icons/wirecons-free-vector-icons/32/menu-alt-128.png" vertex="1" parent="1">
          <mxGeometry x="760" y="10" width="64" height="64" as="geometry" />
        </mxCell>
      </root>
    </mxGraphModel>
  </diagram>
</mxfile>
